<svg version="1.1" preserveAspectRatio="none" xmlns="http://www.w3.org/2000/svg" width="500" height="500" viewBox="0 0 500 500"><rect width="100%" height="100%" fill="#FFFFFF" fill-opacity="1"/><svg viewBox="0 3.934 495.1897 492.1321" width="417" height="414.42519038663363" x="41.5px" y="42.7874px" xmlns="http://www.w3.org/2000/svg" xmlns:xlink="http://www.w3.org/1999/xlink" preserveAspectRatio="none"><defs></defs><style>.aD6z1nYkhcolor18b26566-6512-4533-8e82-7c964306e7ef {fill:#CA0B36;fill-opacity:1;}.icon3-str18b26566-6512-4533-8e82-7c964306e7ef {stroke:#5D5D5D;stroke-opacity:1;}.shapeStroke-str18b26566-6512-4533-8e82-7c964306e7ef {stroke:#DFDFDF;stroke-opacity:1;}.text18b26566-6512-4533-8e82-7c964306e7ef {fill:#DFDFDF;fill-opacity:1;}</style><g opacity="1" transform="rotate(0 399.5891 262.8026)">
<svg width="24.7116" height="1.6474" x="399.5891" y="262.8026" version="1.1" preserveAspectRatio="none" viewBox="0 0 24.7116 1.6474">
  <defs><rect x="0" y="0" width="24.7116" height="1.6474" rx="0%" ry="0%" id="id-18b26566-6512-4533-8e82-7c964306e7efsvOReAC_1678758938563"></rect></defs><use class="text18b26566-6512-4533-8e82-7c964306e7ef shapeStroke-str18b26566-6512-4533-8e82-7c964306e7ef" style="stroke-width:0;" xlink:href="#id-18b26566-6512-4533-8e82-7c964306e7efsvOReAC_1678758938563"></use>
</svg>
</g><g opacity="1" transform="rotate(0 0 3.934)">
<svg width="495.1897" height="492.1321" x="0" y="3.934" version="1.1" preserveAspectRatio="none" viewBox="-2.9492 -28.0078 28.5352 28.3594">
  <g transform="matrix(1 0 0 1 0 0)" class="aD6z1nYkhcolor18b26566-6512-4533-8e82-7c964306e7ef"><path id="id-18b26566-6512-4533-8e82-7c964306e7efD6z1nYkh1" d="M11.23 0.35L11.23 0.35Q10.21 0.35 9.36 0.11Q8.50-0.14 7.75-0.54Q7.01-0.94 6.37-1.46Q5.72-1.97 5.16-2.50L5.16-2.50Q4.00-1.05 2.76-0.38Q1.52 0.29 0.08 0.29L0.08 0.29Q-0.45 0.29-0.99 0.13Q-1.52-0.04-1.96-0.38Q-2.40-0.72-2.68-1.26Q-2.95-1.80-2.95-2.54L-2.95-2.54Q-2.95-3.30-2.63-4.00Q-2.30-4.71-1.73-5.24Q-1.15-5.78-0.36-6.09Q0.43-6.41 1.37-6.41L1.37-6.41Q2.19-6.41 2.92-6.02Q3.65-5.63 4.38-5.02L4.38-5.02Q4.96-6.19 5.61-7.72Q6.25-9.26 7.07-11.19L7.07-11.19L9.61-17.25L7.29-17.25Q6.31-17.25 5.35-17.45Q4.39-17.66 3.65-18.10Q2.91-18.54 2.45-19.20Q1.99-19.86 1.99-20.80L1.99-20.80Q1.99-22.13 2.87-23.43Q3.75-24.73 5.36-25.74Q6.97-26.76 9.27-27.38Q11.56-28.01 14.39-28.01L14.39-28.01Q16.52-28.01 18.54-27.25Q20.55-26.48 22.12-25.02Q23.69-23.55 24.64-21.44Q25.59-19.32 25.59-16.60L25.59-16.60Q25.59-14.71 25.08-12.71Q24.57-10.72 23.65-8.85Q22.73-6.97 21.43-5.29Q20.12-3.61 18.53-2.36Q16.93-1.11 15.09-0.38Q13.24 0.35 11.23 0.35ZM18.40-17.25L12.11-17.25L8.32-8.20Q7.15-5.41 5.96-3.61L5.96-3.61Q6.52-3.09 7.11-2.59Q7.70-2.09 8.34-1.70Q8.98-1.31 9.69-1.07Q10.39-0.84 11.17-0.84L11.17-0.84Q12.85-0.84 14.37-1.55Q15.88-2.27 17.18-3.50Q18.48-4.73 19.53-6.36Q20.59-7.99 21.32-9.81Q22.05-11.64 22.45-13.57Q22.85-15.51 22.85-17.32L22.85-17.32Q22.85-19.39 22.33-21.21Q21.82-23.03 20.74-24.38Q19.67-25.72 18.02-26.50Q16.37-27.29 14.08-27.29L14.08-27.29Q11.84-27.29 10-26.77Q8.16-26.25 6.87-25.43Q5.57-24.61 4.86-23.57Q4.16-22.54 4.16-21.48L4.16-21.48Q4.16-20.94 4.34-20.48Q4.51-20.02 4.95-19.70Q5.39-19.38 6.11-19.19Q6.84-19.00 7.95-19.00L7.95-19.00L10.33-19.00L13.20-25.84L15.70-25.84L12.83-19.00L19.12-19.00L18.40-17.25ZM-0.08-0.68L-0.08-0.68Q0.51-0.68 1.01-0.87Q1.50-1.05 1.96-1.45Q2.42-1.84 2.86-2.42Q3.30-3.01 3.75-3.83L3.75-3.83Q3.07-4.45 2.41-4.88Q1.76-5.31 1.04-5.31L1.04-5.31Q0.29-5.31-0.26-5.06Q-0.82-4.80-1.21-4.40Q-1.60-4.00-1.80-3.53Q-1.99-3.05-1.99-2.60L-1.99-2.60Q-1.99-1.72-1.48-1.20Q-0.98-0.68-0.08-0.68Z"/></g>
</svg>
</g><g opacity="1" transform="rotate(0 76.2095 262.8026)">
<svg width="24.7116" height="1.6474" x="76.2095" y="262.8026" version="1.1" preserveAspectRatio="none" viewBox="0 0 24.7116 1.6474">
  <defs><rect x="0" y="0" width="24.7116" height="1.6474" rx="0%" ry="0%" id="id-18b26566-6512-4533-8e82-7c964306e7effxEKKCpm1678758938563"></rect></defs><use class="text18b26566-6512-4533-8e82-7c964306e7ef shapeStroke-str18b26566-6512-4533-8e82-7c964306e7ef" style="stroke-width:0;" xlink:href="#id-18b26566-6512-4533-8e82-7c964306e7effxEKKCpm1678758938563"></use>
</svg>
</g></svg></svg>