<svg version="1.1" preserveAspectRatio="none" xmlns="http://www.w3.org/2000/svg" width="500" height="500" viewBox="0 0 500 500"><rect width="100%" height="100%" fill="#121212" fill-opacity="1"/><svg viewBox="76.2095 191.452 348.0912 144.3486" width="417" height="172.92412505688165" x="41.5px" y="163.5379px" xmlns="http://www.w3.org/2000/svg" xmlns:xlink="http://www.w3.org/1999/xlink" preserveAspectRatio="none"><defs></defs><style>.companyName1f85ba88-3af1-472f-9692-fbf8740d4226 {fill:#DFDFDF;fill-opacity:1;}.icon3-str1f85ba88-3af1-472f-9692-fbf8740d4226 {stroke:#5D5D5D;stroke-opacity:1;}.shapeStroke-str1f85ba88-3af1-472f-9692-fbf8740d4226 {stroke:#DFDFDF;stroke-opacity:1;}.text1f85ba88-3af1-472f-9692-fbf8740d4226 {fill:#DFDFDF;fill-opacity:1;}</style><g opacity="1" transform="rotate(0 399.5891 262.8026)">
<svg width="24.7116" height="1.6474" x="399.5891" y="262.8026" version="1.1" preserveAspectRatio="none" viewBox="0 0 24.7116 1.6474">
  <defs><rect x="0" y="0" width="24.7116" height="1.6474" rx="0%" ry="0%" id="id-1f85ba88-3af1-472f-9692-fbf8740d4226svOReAC_1678750495473"></rect></defs><use class="text1f85ba88-3af1-472f-9692-fbf8740d4226 shapeStroke-str1f85ba88-3af1-472f-9692-fbf8740d4226" style="stroke-width:0;" xlink:href="#id-1f85ba88-3af1-472f-9692-fbf8740d4226svOReAC_1678750495473"></use>
</svg>
</g><g opacity="1" transform="rotate(0 120.9766 191.452)">
<svg width="258.0469" height="144.3486" x="120.9766" y="191.452" version="1.1" preserveAspectRatio="none" viewBox="1.24 -25.08 45.12 25.24">
  <g transform="matrix(1 0 0 1 0 0)" class="companyName1f85ba88-3af1-472f-9692-fbf8740d4226"><path id="id-1f85ba88-3af1-472f-9692-fbf8740d4226D6z1nYkh2" d="M12.40 0.16Q11.20 0.16 9.64 0.04L9.64 0.04Q9.04 0 8.16-0.04Q7.28-0.08 6.20-0.08L6.20-0.08L3.40-0.04Q2.64 0 1.32 0L1.32 0Q1.24 0 1.24-0.24Q1.24-0.48 1.32-0.48L1.32-0.48Q2.76-0.48 3.44-0.68Q4.12-0.88 4.36-1.46Q4.60-2.04 4.60-3.24L4.60-3.24L4.60-21.76Q4.60-22.96 4.36-23.52Q4.12-24.08 3.46-24.30Q2.80-24.52 1.40-24.52L1.40-24.52Q1.28-24.52 1.28-24.76Q1.28-25 1.40-25L1.40-25L3.40-24.96Q5.16-24.88 6.20-24.88L6.20-24.88Q7.72-24.88 9.28-25L9.28-25Q11.20-25.08 11.84-25.08L11.84-25.08Q15.96-25.08 19.16-23.48Q22.36-21.88 24.12-19.12Q25.88-16.36 25.88-12.92L25.88-12.92Q25.88-9.04 24.06-6.06Q22.24-3.08 19.16-1.46Q16.08 0.16 12.40 0.16L12.40 0.16ZM12-0.56Q15-0.56 17.30-1.90Q19.60-3.24 20.90-5.82Q22.20-8.40 22.20-12.04L22.20-12.04Q22.20-15.52 20.98-18.34Q19.76-21.16 17.50-22.78Q15.24-24.40 12.24-24.40L12.24-24.40Q10.52-24.40 9.60-24.20Q8.68-24 8.24-23.42Q7.80-22.84 7.80-21.68L7.80-21.68L7.80-3.68Q7.80-1.96 8.66-1.26Q9.52-0.56 12-0.56L12-0.56Z M46.28-24.64L46.36-19.60Q46.36-19.48 46.14-19.46Q45.92-19.44 45.88-19.56L45.88-19.56Q45.60-21.76 44.32-22.90Q43.04-24.04 40.96-24.04L40.96-24.04L38.92-24.04Q37.20-24.04 36.58-23.56Q35.96-23.08 35.96-21.72L35.96-21.72L35.96-13L39.64-13Q41.80-13 42.82-13.72Q43.84-14.44 43.84-15.88L43.84-15.88Q43.84-15.96 44.08-15.96Q44.32-15.96 44.32-15.88L44.32-15.88L44.28-12.52Q44.28-11.32 44.32-10.72L44.32-10.72L44.36-8.72Q44.36-8.64 44.12-8.64Q43.88-8.64 43.88-8.72L43.88-8.72Q43.88-10.44 42.84-11.26Q41.80-12.08 39.52-12.08L39.52-12.08L35.96-12.08L35.96-3.40Q35.96-2.12 36.30-1.54Q36.64-0.96 37.60-0.72Q38.56-0.48 40.64-0.48L40.64-0.48Q40.72-0.48 40.72-0.24Q40.72 0 40.64 0L40.64 0Q39 0 38.08-0.04L38.08-0.04L34.32-0.08L31.52-0.04Q30.76 0 29.40 0L29.40 0Q29.32 0 29.32-0.24Q29.32-0.48 29.40-0.48L29.40-0.48Q30.88-0.48 31.58-0.68Q32.28-0.88 32.52-1.46Q32.76-2.04 32.76-3.24L32.76-3.24L32.76-21.76Q32.76-22.96 32.52-23.52Q32.28-24.08 31.62-24.30Q30.96-24.52 29.56-24.52L29.56-24.52Q29.44-24.52 29.44-24.76Q29.44-25 29.56-25L29.56-25L45.88-25Q46.28-25 46.28-24.64L46.28-24.64Z"/></g>
</svg>
</g><g opacity="1" transform="rotate(0 76.2095 262.8026)">
<svg width="24.7116" height="1.6474" x="76.2095" y="262.8026" version="1.1" preserveAspectRatio="none" viewBox="0 0 24.7116 1.6474">
  <defs><rect x="0" y="0" width="24.7116" height="1.6474" rx="0%" ry="0%" id="id-1f85ba88-3af1-472f-9692-fbf8740d4226fxEKKCpm1678750495473"></rect></defs><use class="text1f85ba88-3af1-472f-9692-fbf8740d4226 shapeStroke-str1f85ba88-3af1-472f-9692-fbf8740d4226" style="stroke-width:0;" xlink:href="#id-1f85ba88-3af1-472f-9692-fbf8740d4226fxEKKCpm1678750495473"></use>
</svg>
</g></svg></svg>