<svg version="1.1" preserveAspectRatio="none" xmlns="http://www.w3.org/2000/svg" width="500" height="500" viewBox="0 0 500 500"><rect width="100%" height="100%" fill="#121212" fill-opacity="1"/><svg viewBox="162.1014 192.5589 228.0754 233.8646" width="406.6773757122711" height="417" x="46.6613px" y="41.5px" xmlns="http://www.w3.org/2000/svg" xmlns:xlink="http://www.w3.org/1999/xlink" preserveAspectRatio="none"><defs></defs><style>.aD6z1nYkhcolor31bcd652-fe4d-4e20-b1ce-ea2f9fe02144 {fill:#DFDFDF;fill-opacity:0.39;}.aMAkTg2WuD0filter-floo31bcd652-fe4d-4e20-b1ce-ea2f9fe02144 {flood-color:#DFDFDF;flood-opacity:0.22;}.icon3-str31bcd652-fe4d-4e20-b1ce-ea2f9fe02144 {stroke:#5D5D5D;stroke-opacity:1;}</style><defs>
      <filter
        x="162.1014"
        y="192.5589"
        width="228.0754"
        height="233.8646"
        id="31bcd652-fe4d-4e20-b1ce-ea2f9fe02144MAkTg2WuD"
        filterUnits="userSpaceOnUse"
        primitiveUnits="userSpaceOnUse"
        color-interpolation-filters="sRGB">
        
    <feGaussianBlur in="SourceGraphic" stdDeviation="10"/>
    <feOffset dx="4" dy="4" result="GkTqEvTnxY"/>
    <feFlood flood-color="#DFDFDF" flood-opacity="0.22" in="GkTqEvTnxY" />
    <feComposite  in2="GkTqEvTnxY" operator="in" result="cspa5wHQrJ"/><feMerge result="i40-yOuYmN"><feMergeNode in="cspa5wHQrJ" /><feMergeNode in="SourceGraphic" /></feMerge><feGaussianBlur  result="NYAJNkMY0C" stdDeviation="2" />
      </filter></defs><g filter="url(#31bcd652-fe4d-4e20-b1ce-ea2f9fe02144MAkTg2WuD)"><g opacity="1" transform="rotate(49 257 224.5589)">
<svg width="142.0251" height="83.3414" x="257" y="224.5589" version="1.1" preserveAspectRatio="none" viewBox="-4.4939 -25.7729 49.1473 28.839299999999998">
  <g transform="matrix(1 0 0 1 0 0)" class="aD6z1nYkhcolor31bcd652-fe4d-4e20-b1ce-ea2f9fe02144"><path id="id-31bcd652-fe4d-4e20-b1ce-ea2f9fe02144D6z1nYkh2" d="M8.87 0.57Q7.67 0.67 6.11 0.69L6.11 0.69Q5.51 0.70 4.63 0.74Q3.75 0.78 2.67 0.88L2.67 0.88L-0.12 1.17Q-0.87 1.27-2.18 1.39L-2.18 1.39Q-2.26 1.40-2.29 1.16Q-2.31 0.92-2.23 0.91L-2.23 0.91Q-0.79 0.78-0.13 0.53Q0.53 0.27 0.71-0.33Q0.90-0.93 0.79-2.13L0.79-2.13L-0.85-20.57Q-0.96-21.77-1.25-22.31Q-1.54-22.84-2.21-23.00Q-2.89-23.16-4.28-23.04L-4.28-23.04Q-4.40-23.03-4.43-23.27Q-4.45-23.51-4.33-23.52L-4.33-23.52L-2.33-23.66Q-0.57-23.73 0.46-23.82L0.46-23.82Q1.98-23.96 3.52-24.22L3.52-24.22Q5.43-24.47 6.06-24.53L6.06-24.53Q10.17-24.89 13.50-23.58Q16.83-22.27 18.83-19.68Q20.82-17.09 21.13-13.66L21.13-13.66Q21.47-9.80 19.93-6.67Q18.38-3.54 15.46-1.65Q12.53 0.24 8.87 0.57L8.87 0.57ZM8.40-0.12Q11.39-0.38 13.56-1.92Q15.74-3.46 16.80-6.15Q17.87-8.83 17.54-12.46L17.54-12.46Q17.23-15.92 15.77-18.62Q14.30-21.32 11.91-22.74Q9.51-24.15 6.52-23.88L6.52-23.88Q4.81-23.73 3.91-23.45Q3.01-23.17 2.63-22.55Q2.24-21.93 2.34-20.78L2.34-20.78L3.94-2.85Q4.10-1.14 5.01-0.52Q5.93 0.10 8.40-0.12L8.40-0.12Z M44.51-21.13L43.62-16.17Q43.59-16.05 43.37-16.08Q43.15-16.10 43.14-16.22L43.14-16.22Q43.29-18.44 42.25-19.80Q41.21-21.17 39.17-21.57L39.17-21.57L37.17-21.96Q35.48-22.29 34.78-21.94Q34.08-21.59 33.82-20.25L33.82-20.25L32.14-11.69L35.75-10.99Q37.87-10.57 39.01-11.08Q40.15-11.59 40.43-13.01L40.43-13.01Q40.44-13.08 40.68-13.04Q40.91-12.99 40.90-12.91L40.90-12.91L40.21-9.62Q39.98-8.45 39.91-7.85L39.91-7.85L39.56-5.88Q39.55-5.80 39.31-5.85Q39.08-5.89 39.09-5.97L39.09-5.97Q39.42-7.66 38.56-8.66Q37.70-9.67 35.46-10.11L35.46-10.11L31.96-10.79L30.30-2.27Q30.05-1.02 30.27-0.38Q30.49 0.25 31.39 0.67Q32.29 1.09 34.33 1.49L34.33 1.49Q34.41 1.51 34.36 1.74Q34.31 1.98 34.23 1.96L34.23 1.96Q32.63 1.65 31.73 1.43L31.73 1.43L28.05 0.67L25.29 0.17Q24.54 0.06 23.20-0.20L23.20-0.20Q23.13-0.21 23.17-0.45Q23.22-0.68 23.30-0.67L23.30-0.67Q24.75-0.38 25.47-0.45Q26.20-0.51 26.55-1.03Q26.89-1.55 27.12-2.73L27.12-2.73L30.69-20.91Q30.92-22.08 30.79-22.68Q30.66-23.27 30.05-23.62Q29.45-23.96 28.08-24.23L28.08-24.23Q27.96-24.25 28.00-24.49Q28.05-24.72 28.17-24.70L28.17-24.70L44.18-21.56Q44.58-21.49 44.51-21.13L44.51-21.13Z"/></g>
</svg>
</g></g></svg></svg>