<svg version="1.1" preserveAspectRatio="none" xmlns="http://www.w3.org/2000/svg" width="500" height="500" viewBox="0 0 500 500"><rect width="100%" height="100%" fill="#121212" fill-opacity="1"/><svg viewBox="254 537.2945 380 21.9109" width="417" height="24.044329736842105" x="41.5px" y="237.9778px" xmlns="http://www.w3.org/2000/svg" xmlns:xlink="http://www.w3.org/1999/xlink" preserveAspectRatio="none"><defs></defs><style>.companyNamec8709a5f-5ae2-4aeb-812a-1788e57457cb {fill:#DFDFDF;fill-opacity:1;}.icon3-strc8709a5f-5ae2-4aeb-812a-1788e57457cb {stroke:#5D5D5D;stroke-opacity:1;}.shapeStroke-strc8709a5f-5ae2-4aeb-812a-1788e57457cb {stroke:#DFDFDF;stroke-opacity:1;}.textc8709a5f-5ae2-4aeb-812a-1788e57457cb {fill:#DFDFDF;fill-opacity:1;}</style><g opacity="1" transform="rotate(0 610.524 547.4674)">
<svg width="23.476" height="1.5651" x="610.524" y="547.4674" version="1.1" preserveAspectRatio="none" viewBox="0 0 23.476 1.5651">
  <defs><rect x="0" y="0" width="23.476" height="1.5651" rx="0%" ry="0%" id="id-c8709a5f-5ae2-4aeb-812a-1788e57457cbsvOReAC_1678745410004"></rect></defs><use class="textc8709a5f-5ae2-4aeb-812a-1788e57457cb shapeStroke-strc8709a5f-5ae2-4aeb-812a-1788e57457cb" style="stroke-width:0;" xlink:href="#id-c8709a5f-5ae2-4aeb-812a-1788e57457cbsvOReAC_1678745410004"></use>
</svg>
</g><g opacity="1" transform="rotate(0 293.1266 537.2945)">
<svg width="301.7468" height="21.9109" x="293.1266" y="537.2945" version="1.1" preserveAspectRatio="none" viewBox="1.24 -25.08 353.28000000000003 25.653299999999998">
  <g transform="matrix(1 0 0 1 0 0)" class="companyNamec8709a5f-5ae2-4aeb-812a-1788e57457cb"><path id="id-c8709a5f-5ae2-4aeb-812a-1788e57457cbD6z1nYkh17" d="M12.40 0.16Q11.20 0.16 9.64 0.04L9.64 0.04Q9.04 0 8.16-0.04Q7.28-0.08 6.20-0.08L6.20-0.08L3.40-0.04Q2.64 0 1.32 0L1.32 0Q1.24 0 1.24-0.24Q1.24-0.48 1.32-0.48L1.32-0.48Q2.76-0.48 3.44-0.68Q4.12-0.88 4.36-1.46Q4.60-2.04 4.60-3.24L4.60-3.24L4.60-21.76Q4.60-22.96 4.36-23.52Q4.12-24.08 3.46-24.30Q2.80-24.52 1.40-24.52L1.40-24.52Q1.28-24.52 1.28-24.76Q1.28-25 1.40-25L1.40-25L3.40-24.96Q5.16-24.88 6.20-24.88L6.20-24.88Q7.72-24.88 9.28-25L9.28-25Q11.20-25.08 11.84-25.08L11.84-25.08Q15.96-25.08 19.16-23.48Q22.36-21.88 24.12-19.12Q25.88-16.36 25.88-12.92L25.88-12.92Q25.88-9.04 24.06-6.06Q22.24-3.08 19.16-1.46Q16.08 0.16 12.40 0.16L12.40 0.16ZM12-0.56Q15-0.56 17.30-1.90Q19.60-3.24 20.90-5.82Q22.20-8.40 22.20-12.04L22.20-12.04Q22.20-15.52 20.98-18.34Q19.76-21.16 17.50-22.78Q15.24-24.40 12.24-24.40L12.24-24.40Q10.52-24.40 9.60-24.20Q8.68-24 8.24-23.42Q7.80-22.84 7.80-21.68L7.80-21.68L7.80-3.68Q7.80-1.96 8.66-1.26Q9.52-0.56 12-0.56L12-0.56Z M46.28-24.64L46.36-19.60Q46.36-19.48 46.14-19.46Q45.92-19.44 45.88-19.56L45.88-19.56Q45.60-21.76 44.32-22.90Q43.04-24.04 40.96-24.04L40.96-24.04L38.92-24.04Q37.20-24.04 36.58-23.56Q35.96-23.08 35.96-21.72L35.96-21.72L35.96-13L39.64-13Q41.80-13 42.82-13.72Q43.84-14.44 43.84-15.88L43.84-15.88Q43.84-15.96 44.08-15.96Q44.32-15.96 44.32-15.88L44.32-15.88L44.28-12.52Q44.28-11.32 44.32-10.72L44.32-10.72L44.36-8.72Q44.36-8.64 44.12-8.64Q43.88-8.64 43.88-8.72L43.88-8.72Q43.88-10.44 42.84-11.26Q41.80-12.08 39.52-12.08L39.52-12.08L35.96-12.08L35.96-3.40Q35.96-2.12 36.30-1.54Q36.64-0.96 37.60-0.72Q38.56-0.48 40.64-0.48L40.64-0.48Q40.72-0.48 40.72-0.24Q40.72 0 40.64 0L40.64 0Q39 0 38.08-0.04L38.08-0.04L34.32-0.08L31.52-0.04Q30.76 0 29.40 0L29.40 0Q29.32 0 29.32-0.24Q29.32-0.48 29.40-0.48L29.40-0.48Q30.88-0.48 31.58-0.68Q32.28-0.88 32.52-1.46Q32.76-2.04 32.76-3.24L32.76-3.24L32.76-21.76Q32.76-22.96 32.52-23.52Q32.28-24.08 31.62-24.30Q30.96-24.52 29.56-24.52L29.56-24.52Q29.44-24.52 29.44-24.76Q29.44-25 29.56-25L29.56-25L45.88-25Q46.28-25 46.28-24.64L46.28-24.64Z M55.40-15.44L55.40-3.40Q55.40-2.28 55.62-1.72Q55.84-1.16 56.44-0.94Q57.04-0.72 58.28-0.72L58.28-0.72L60.20-0.72Q62.36-0.72 63.82-2.10Q65.28-3.48 65.88-5.84L65.88-5.84Q65.88-5.92 66.04-5.92L66.04-5.92Q66.16-5.92 66.26-5.88Q66.36-5.84 66.36-5.76L66.36-5.76Q66.08-3.84 66.08-0.60L66.08-0.60Q66.08-0.28 65.94-0.14Q65.80 0 65.44 0L65.44 0L49.68 0Q49.60 0 49.60-0.24Q49.60-0.48 49.68-0.48L49.68-0.48Q50.92-0.48 51.48-0.68Q52.04-0.88 52.24-1.46Q52.44-2.04 52.44-3.24L52.44-3.24L52.44-15.48Q52.44-16.68 52.24-17.24Q52.04-17.80 51.46-18.02Q50.88-18.24 49.68-18.24L49.68-18.24Q49.60-18.24 49.60-18.48Q49.60-18.72 49.68-18.72L49.68-18.72L51.52-18.68Q53.12-18.60 54-18.60L54-18.60Q54.96-18.60 56.56-18.68L56.56-18.68L58.32-18.72Q58.40-18.72 58.40-18.48Q58.40-18.24 58.32-18.24L58.32-18.24Q57.04-18.24 56.44-18.02Q55.84-17.80 55.62-17.22Q55.40-16.64 55.40-15.44L55.40-15.44Z M83.48-5.32Q83.52-5.44 83.74-5.44Q83.96-5.44 83.96-5.32L83.96-5.32Q83.68-2.44 83.68-0.60L83.68-0.60Q83.68-0.28 83.56-0.14Q83.44 0 83.08 0L83.08 0L68.28 0Q68.20 0 68.20-0.24Q68.20-0.48 68.28-0.48L68.28-0.48Q69.56-0.48 70.14-0.68Q70.72-0.88 70.94-1.46Q71.16-2.04 71.16-3.24L71.16-3.24L71.16-15.48Q71.16-16.68 70.94-17.24Q70.72-17.80 70.12-18.02Q69.52-18.24 68.28-18.24L68.28-18.24Q68.20-18.24 68.20-18.48Q68.20-18.72 68.28-18.72L68.28-18.72L82.36-18.72Q82.76-18.72 82.76-18.40L82.76-18.40L82.80-15.92Q82.84-15.16 82.84-14L82.84-14Q82.84-13.88 82.60-13.88Q82.36-13.88 82.36-14L82.36-14Q82.00-15.84 80.70-17.02Q79.40-18.20 77.72-18.20L77.72-18.20L76.84-18.20Q75.64-18.20 75.06-17.98Q74.48-17.76 74.28-17.20Q74.08-16.64 74.08-15.44L74.08-15.44L74.08-10Q77.68-10.04 79.10-10.22Q80.52-10.40 80.72-10.40L80.72-10.40Q80.96-10.40 80.96-9.52L80.96-9.52Q80.96-8.60 80.72-8.60L80.72-8.60Q80.56-8.60 79.12-8.80Q77.68-9 74.08-9.08L74.08-9.08L74.08-3.40Q74.08-2.24 74.28-1.66Q74.48-1.08 75.06-0.86Q75.64-0.64 76.84-0.64L76.84-0.64L78.32-0.64Q80.04-0.64 81.48-1.96Q82.92-3.28 83.48-5.32L83.48-5.32Z M91.68-18.12Q89.68-18.12 88.60-17.02Q87.52-15.92 86.96-13.40L86.96-13.40Q86.96-13.32 86.74-13.32Q86.52-13.32 86.52-13.40L86.52-13.40Q86.68-14.64 86.84-16.60Q87.00-18.56 87.00-19.60L87.00-19.60Q87.00-19.80 87.22-19.80Q87.44-19.80 87.44-19.60L87.44-19.60Q87.44-19.08 88.04-18.94Q88.64-18.80 89.56-18.80L89.56-18.80Q93.00-18.72 95.60-18.72L95.60-18.72L99.08-18.76Q99.76-18.80 100.92-18.80L100.92-18.80Q102.44-18.80 103.14-18.98Q103.84-19.16 104.04-19.76L104.04-19.76Q104.12-19.88 104.32-19.88Q104.52-19.88 104.52-19.76L104.52-19.76Q104.24-14.60 104.24-13.40L104.24-13.40Q104.24-13.32 104.02-13.32Q103.80-13.32 103.80-13.40L103.80-13.40Q103.64-15.84 102.60-16.98Q101.56-18.12 99.52-18.12L99.52-18.12Q98.04-18.12 97.56-17.58Q97.08-17.04 97.08-15.48L97.08-15.48L97.08-3.24Q97.08-2 97.30-1.44Q97.52-0.88 98.20-0.68Q98.88-0.48 100.36-0.48L100.36-0.48Q100.44-0.48 100.44-0.24Q100.44 0 100.36 0L100.36 0Q99.04 0 98.32-0.04L98.32-0.04L95.52-0.08L92.76-0.04Q92.00 0 90.68 0L90.68 0Q90.60 0 90.60-0.24Q90.60-0.48 90.68-0.48L90.68-0.48Q92.16-0.48 92.84-0.68Q93.52-0.88 93.78-1.46Q94.04-2.04 94.04-3.24L94.04-3.24L94.04-15.56Q94.04-16.68 93.88-17.20Q93.72-17.72 93.24-17.92Q92.76-18.12 91.68-18.12L91.68-18.12Z M117.84-19.20Q119.36-19.20 121.10-18.90Q122.84-18.60 123.92-18.04L123.92-18.04Q124.20-17.92 124.28-17.80Q124.36-17.68 124.40-17.36L124.40-17.36L124.72-13.24Q124.72-13.12 124.50-13.08Q124.28-13.04 124.24-13.20L124.24-13.20Q122.32-18.52 117.12-18.52L117.12-18.52Q115.08-18.52 113.54-17.44Q112.00-16.36 111.14-14.42Q110.28-12.48 110.28-10.04L110.28-10.04Q110.28-7.56 111.14-5.30Q112.00-3.04 113.78-1.60Q115.56-0.16 118.12-0.16L118.12-0.16Q120.44-0.16 122.04-1.48Q123.64-2.80 124.60-5.60L124.60-5.60Q124.64-5.76 124.86-5.72Q125.08-5.68 125.08-5.56L125.08-5.56L124.64-1.32Q124.60-1 124.52-0.88Q124.44-0.76 124.08-0.60L124.08-0.60Q121.00 0.48 117.68 0.48L117.68 0.48Q113.88 0.48 111.42-1.04Q108.96-2.56 107.88-4.84Q106.80-7.12 106.80-9.44L106.80-9.44Q106.80-12.20 108.24-14.42Q109.68-16.64 112.22-17.92Q114.76-19.20 117.84-19.20L117.84-19.20Z M150.52-0.48Q150.60-0.48 150.60-0.24Q150.60 0 150.52 0L150.52 0Q149.32 0 148.64-0.04L148.64-0.04L146.20-0.08L143.64-0.04Q143.00 0 141.84 0L141.84 0Q141.72 0 141.72-0.24Q141.72-0.48 141.84-0.48L141.84-0.48Q143.12-0.48 143.70-0.68Q144.28-0.88 144.48-1.46Q144.68-2.04 144.68-3.24L144.68-3.24L144.68-9.04L134.00-9.04L134.00-3.24Q134.00-2.04 134.20-1.46Q134.40-0.88 134.98-0.68Q135.56-0.48 136.84-0.48L136.84-0.48Q136.96-0.48 136.96-0.24Q136.96 0 136.84 0L136.84 0Q135.68 0 135.04-0.04L135.04-0.04L132.52-0.08L130.04-0.04Q129.36 0 128.16 0L128.16 0Q128.08 0 128.08-0.24Q128.08-0.48 128.16-0.48L128.16-0.48Q129.44-0.48 130.04-0.68Q130.64-0.88 130.86-1.46Q131.08-2.04 131.08-3.24L131.08-3.24L131.08-15.48Q131.08-16.68 130.86-17.24Q130.64-17.80 130.06-18.02Q129.48-18.24 128.24-18.24L128.24-18.24Q128.12-18.24 128.12-18.48Q128.12-18.72 128.24-18.72L128.24-18.72L130.04-18.68Q131.56-18.60 132.52-18.60L132.52-18.60Q133.48-18.60 135.08-18.68L135.08-18.68L136.84-18.72Q136.96-18.72 136.96-18.48Q136.96-18.24 136.84-18.24L136.84-18.24Q135.60-18.24 135.02-18Q134.44-17.76 134.22-17.18Q134.00-16.60 134.00-15.40L134.00-15.40L134.00-9.84L144.68-9.84L144.68-15.40Q144.68-16.60 144.48-17.18Q144.28-17.76 143.68-18Q143.08-18.24 141.84-18.24L141.84-18.24Q141.72-18.24 141.72-18.48Q141.72-18.72 141.84-18.72L141.84-18.72L143.64-18.68Q145.16-18.60 146.20-18.60L146.20-18.60Q147.12-18.60 148.64-18.68L148.64-18.68L150.52-18.72Q150.60-18.72 150.60-18.48Q150.60-18.24 150.52-18.24L150.52-18.24Q149.24-18.24 148.64-18.02Q148.04-17.80 147.82-17.24Q147.60-16.68 147.60-15.48L147.60-15.48L147.60-3.24Q147.60-2.04 147.82-1.46Q148.04-0.88 148.64-0.68Q149.24-0.48 150.52-0.48L150.52-0.48Z M198.36-25Q198.44-25 198.44-24.76Q198.44-24.52 198.36-24.52L198.36-24.52Q195.48-24.52 194.04-20.88L194.04-20.88L185.88-0.04Q185.84 0.12 185.44 0.12L185.44 0.12Q185.04 0.12 185.00-0.04L185.00-0.04L179.80-11.24L175.44-0.04Q175.40 0.12 175.00 0.12L175.00 0.12Q174.60 0.12 174.56-0.04L174.56-0.04L164.52-21.68Q163.76-23.36 163.10-23.94Q162.44-24.52 161.24-24.52L161.24-24.52Q161.12-24.52 161.12-24.76Q161.12-25 161.24-25L161.24-25L162.48-24.96Q163.52-24.88 164.44-24.88L164.44-24.88Q166.24-24.88 168.00-24.96L168.00-24.96Q168.56-25 169.52-25L169.52-25Q169.64-25 169.64-24.76Q169.64-24.52 169.52-24.52L169.52-24.52Q168.36-24.52 167.84-24.28Q167.32-24.04 167.32-23.36L167.32-23.36Q167.32-22.80 167.88-21.56L167.88-21.56L176.00-4.24L179.24-12.44L174.96-21.68Q174.28-23.16 173.58-23.84Q172.88-24.52 171.88-24.52L171.88-24.52Q171.76-24.52 171.76-24.76Q171.76-25 171.88-25L171.88-25L173.12-24.96Q174.08-24.88 174.88-24.88L174.88-24.88Q176.40-24.88 177.68-24.96L177.68-24.96Q178.08-25 178.76-25L178.76-25Q178.88-25 178.88-24.76Q178.88-24.52 178.76-24.52L178.76-24.52Q178.08-24.52 177.78-24.38Q177.48-24.24 177.48-23.88L177.48-23.88Q177.48-23.56 177.72-22.96Q177.96-22.36 178.32-21.56L178.32-21.56L180.88-16.08L182.84-21.04Q183.40-22.52 183.40-23.28L183.40-23.28Q183.40-24.52 181.92-24.52L181.92-24.52Q181.84-24.52 181.84-24.76Q181.84-25 181.92-25L181.92-25L182.72-24.96Q183.44-24.88 184.56-24.88L184.56-24.88Q185.32-24.88 186.28-24.96L186.28-24.96L187.92-25Q188.00-25 188.00-24.76Q188.00-24.52 187.92-24.52L187.92-24.52Q186.56-24.52 185.56-23.68Q184.56-22.84 183.80-20.88L183.80-20.88L181.44-14.92L186.44-4.24L193.00-20.88Q193.36-21.80 193.36-22.52L193.36-22.52Q193.36-24.52 190.56-24.52L190.56-24.52Q190.44-24.52 190.44-24.76Q190.44-25 190.56-25L190.56-25L192.28-24.96Q193.72-24.88 194.80-24.88L194.80-24.88Q195.60-24.88 196.64-24.96L196.64-24.96L198.36-25Z M213.80-5.32Q213.84-5.44 214.06-5.44Q214.28-5.44 214.28-5.32L214.28-5.32Q214.00-2.44 214.00-0.60L214.00-0.60Q214.00-0.28 213.88-0.14Q213.76 0 213.40 0L213.40 0L198.60 0Q198.52 0 198.52-0.24Q198.52-0.48 198.60-0.48L198.60-0.48Q199.88-0.48 200.46-0.68Q201.04-0.88 201.26-1.46Q201.48-2.04 201.48-3.24L201.48-3.24L201.48-15.48Q201.48-16.68 201.26-17.24Q201.04-17.80 200.44-18.02Q199.84-18.24 198.60-18.24L198.60-18.24Q198.52-18.24 198.52-18.48Q198.52-18.72 198.60-18.72L198.60-18.72L212.68-18.72Q213.08-18.72 213.08-18.40L213.08-18.40L213.12-15.92Q213.16-15.16 213.16-14L213.16-14Q213.16-13.88 212.92-13.88Q212.68-13.88 212.68-14L212.68-14Q212.32-15.84 211.02-17.02Q209.72-18.20 208.04-18.20L208.04-18.20L207.16-18.20Q205.96-18.20 205.38-17.98Q204.80-17.76 204.60-17.20Q204.40-16.64 204.40-15.44L204.40-15.44L204.40-10Q208.00-10.04 209.42-10.22Q210.84-10.40 211.04-10.40L211.04-10.40Q211.28-10.40 211.28-9.52L211.28-9.52Q211.28-8.60 211.04-8.60L211.04-8.60Q210.88-8.60 209.44-8.80Q208.00-9 204.40-9.08L204.40-9.08L204.40-3.40Q204.40-2.24 204.60-1.66Q204.80-1.08 205.38-0.86Q205.96-0.64 207.16-0.64L207.16-0.64L208.64-0.64Q210.36-0.64 211.80-1.96Q213.24-3.28 213.80-5.32L213.80-5.32Z M228.36-10.36Q231.36-10.16 232.96-9Q234.56-7.84 234.56-5.68L234.56-5.68Q234.56-3.96 233.58-2.64Q232.60-1.32 230.88-0.58Q229.16 0.16 226.96 0.16L226.96 0.16Q225.84 0.16 224.48 0.04L224.48 0.04Q223.92 0 223.14-0.04Q222.36-0.08 221.48-0.08L221.48-0.08L219.04-0.04Q218.36 0 217.16 0L217.16 0Q217.08 0 217.08-0.24Q217.08-0.48 217.16-0.48L217.16-0.48Q218.48-0.48 219.08-0.68Q219.68-0.88 219.88-1.46Q220.08-2.04 220.08-3.24L220.08-3.24L220.08-15.48Q220.08-16.68 219.88-17.24Q219.68-17.80 219.08-18.02Q218.48-18.24 217.24-18.24L217.24-18.24Q217.12-18.24 217.12-18.48Q217.12-18.72 217.24-18.72L217.24-18.72L219.04-18.68Q220.56-18.60 221.48-18.60L221.48-18.60Q222.56-18.60 223.76-18.72L223.76-18.72Q224.16-18.76 224.80-18.80Q225.44-18.84 226.32-18.84L226.32-18.84Q229.20-18.84 230.84-17.80Q232.48-16.76 232.48-14.88L232.48-14.88Q232.48-13.36 231.40-12.18Q230.32-11 228.36-10.36L228.36-10.36ZM225.32-18.32Q224.36-18.32 223.88-18.10Q223.40-17.88 223.20-17.26Q223.00-16.64 223.00-15.40L223.00-15.40L223.00-10.36L224.84-10.36Q226.52-10.36 227.48-10.64Q228.44-10.92 228.96-11.72Q229.48-12.52 229.48-14.04L229.48-14.04Q229.48-18.32 225.32-18.32L225.32-18.32ZM226.28-0.48Q231.40-0.48 231.40-4.76L231.40-4.76Q231.40-7.04 229.80-8.34Q228.20-9.64 224.84-9.64L224.84-9.64Q223.60-9.64 223.00-9.60L223.00-9.60L223.00-3.24Q223.00-1.72 223.66-1.10Q224.32-0.48 226.28-0.48L226.28-0.48Z M248.52 0.16Q247.32 0.16 245.76 0.04L245.76 0.04Q245.16 0 244.28-0.04Q243.40-0.08 242.32-0.08L242.32-0.08L239.52-0.04Q238.76 0 237.44 0L237.44 0Q237.36 0 237.36-0.24Q237.36-0.48 237.44-0.48L237.44-0.48Q238.88-0.48 239.56-0.68Q240.24-0.88 240.48-1.46Q240.72-2.04 240.72-3.24L240.72-3.24L240.72-21.76Q240.72-22.96 240.48-23.52Q240.24-24.08 239.58-24.30Q238.92-24.52 237.52-24.52L237.52-24.52Q237.40-24.52 237.40-24.76Q237.40-25 237.52-25L237.52-25L239.52-24.96Q241.28-24.88 242.32-24.88L242.32-24.88Q243.84-24.88 245.40-25L245.40-25Q247.32-25.08 247.96-25.08L247.96-25.08Q252.08-25.08 255.28-23.48Q258.48-21.88 260.24-19.12Q262.00-16.36 262.00-12.92L262.00-12.92Q262.00-9.04 260.18-6.06Q258.36-3.08 255.28-1.46Q252.20 0.16 248.52 0.16L248.52 0.16ZM248.12-0.56Q251.12-0.56 253.42-1.90Q255.72-3.24 257.02-5.82Q258.32-8.40 258.32-12.04L258.32-12.04Q258.32-15.52 257.10-18.34Q255.88-21.16 253.62-22.78Q251.36-24.40 248.36-24.40L248.36-24.40Q246.64-24.40 245.72-24.20Q244.80-24 244.36-23.42Q243.92-22.84 243.92-21.68L243.92-21.68L243.92-3.68Q243.92-1.96 244.78-1.26Q245.64-0.56 248.12-0.56L248.12-0.56Z M280.48-5.32Q280.52-5.44 280.74-5.44Q280.96-5.44 280.96-5.32L280.96-5.32Q280.68-2.44 280.68-0.60L280.68-0.60Q280.68-0.28 280.56-0.14Q280.44 0 280.08 0L280.08 0L265.28 0Q265.20 0 265.20-0.24Q265.20-0.48 265.28-0.48L265.28-0.48Q266.56-0.48 267.14-0.68Q267.72-0.88 267.94-1.46Q268.16-2.04 268.16-3.24L268.16-3.24L268.16-15.48Q268.16-16.68 267.94-17.24Q267.72-17.80 267.12-18.02Q266.52-18.24 265.28-18.24L265.28-18.24Q265.20-18.24 265.20-18.48Q265.20-18.72 265.28-18.72L265.28-18.72L279.36-18.72Q279.76-18.72 279.76-18.40L279.76-18.40L279.80-15.92Q279.84-15.16 279.84-14L279.84-14Q279.84-13.88 279.60-13.88Q279.36-13.88 279.36-14L279.36-14Q279.00-15.84 277.70-17.02Q276.40-18.20 274.72-18.20L274.72-18.20L273.84-18.20Q272.64-18.20 272.06-17.98Q271.48-17.76 271.28-17.20Q271.08-16.64 271.08-15.44L271.08-15.44L271.08-10Q274.68-10.04 276.10-10.22Q277.52-10.40 277.72-10.40L277.72-10.40Q277.96-10.40 277.96-9.52L277.96-9.52Q277.96-8.60 277.72-8.60L277.72-8.60Q277.56-8.60 276.12-8.80Q274.68-9 271.08-9.08L271.08-9.08L271.08-3.40Q271.08-2.24 271.28-1.66Q271.48-1.08 272.06-0.86Q272.64-0.64 273.84-0.64L273.84-0.64L275.32-0.64Q277.04-0.64 278.48-1.96Q279.92-3.28 280.48-5.32L280.48-5.32Z M287.56-15.56Q287.56-14.40 288.18-13.52Q288.80-12.64 289.68-12.06Q290.56-11.48 292.16-10.64L292.16-10.64Q293.80-9.80 294.82-9.12Q295.84-8.44 296.54-7.42Q297.24-6.40 297.24-5L297.24-5Q297.24-3.48 296.38-2.22Q295.52-0.96 293.96-0.24Q292.40 0.48 290.36 0.48L290.36 0.48Q288.84 0.48 287.46 0.10Q286.08-0.28 285.16-0.92L285.16-0.92Q284.84-1.12 284.84-1.72L284.84-1.72L284.48-5.88Q284.48-6.04 284.68-6.08Q284.88-6.12 284.96-5.96L284.96-5.96Q285.76-3.64 287.42-1.94Q289.08-0.24 291.12-0.24L291.12-0.24Q292.44-0.24 293.40-1.02Q294.36-1.80 294.36-3.44L294.36-3.44Q294.36-4.72 293.72-5.70Q293.08-6.68 292.12-7.34Q291.16-8 289.64-8.84L289.64-8.84Q288.08-9.68 287.12-10.34Q286.16-11 285.50-11.98Q284.84-12.96 284.84-14.28L284.84-14.28Q284.84-16.56 286.70-17.88Q288.56-19.20 291.20-19.20L291.20-19.20Q293.44-19.20 295.48-18.28L295.48-18.28Q295.84-18.12 295.94-17.98Q296.04-17.84 296.08-17.56L296.08-17.56L296.24-14Q296.24-13.84 296.04-13.80Q295.84-13.76 295.76-13.88L295.76-13.88Q295.56-14.76 294.86-15.84Q294.16-16.92 293.02-17.70Q291.88-18.48 290.48-18.48L290.48-18.48Q289.04-18.48 288.30-17.68Q287.56-16.88 287.56-15.56L287.56-15.56Z M306.04-3.24Q306.04-2.04 306.24-1.46Q306.44-0.88 307.02-0.68Q307.60-0.48 308.88-0.48L308.88-0.48Q309-0.48 309-0.24Q309 0 308.88 0L308.88 0Q307.72 0 307.08-0.04L307.08-0.04L304.52-0.08L302.04-0.04Q301.36 0 300.16 0L300.16 0Q300.08 0 300.08-0.24Q300.08-0.48 300.16-0.48L300.16-0.48Q301.44-0.48 302.04-0.68Q302.64-0.88 302.86-1.46Q303.08-2.04 303.08-3.24L303.08-3.24L303.08-15.48Q303.08-16.68 302.86-17.24Q302.64-17.80 302.04-18.02Q301.44-18.24 300.16-18.24L300.16-18.24Q300.08-18.24 300.08-18.48Q300.08-18.72 300.16-18.72L300.16-18.72L302.04-18.68Q303.56-18.60 304.52-18.60L304.52-18.60Q305.52-18.60 307.12-18.68L307.12-18.68L308.88-18.72Q309-18.72 309-18.48Q309-18.24 308.88-18.24L308.88-18.24Q307.64-18.24 307.06-18Q306.48-17.76 306.26-17.18Q306.04-16.60 306.04-15.40L306.04-15.40L306.04-3.24Z M322.24 0.48Q319.04 0.48 316.66-0.86Q314.28-2.20 313.04-4.40Q311.80-6.60 311.80-9.04L311.80-9.04Q311.80-12.16 313.20-14.46Q314.60-16.76 317.20-17.98Q319.80-19.20 323.32-19.20L323.32-19.20Q325.04-19.20 326.60-18.88Q328.16-18.56 329.20-17.96L329.20-17.96Q329.44-17.84 329.50-17.66Q329.56-17.48 329.60-17.08L329.60-17.08L329.96-13.32Q329.96-13.20 329.74-13.18Q329.52-13.16 329.48-13.28L329.48-13.28Q327.36-18.52 322.40-18.52L322.40-18.52Q319.08-18.52 317.12-16.14Q315.16-13.76 315.16-9.56L315.16-9.56Q315.16-6.84 316.14-4.72Q317.12-2.60 318.94-1.42Q320.76-0.24 323.20-0.24L323.20-0.24Q325.08-0.24 325.96-0.60Q326.84-0.96 327.14-1.94Q327.44-2.92 327.44-5.04L327.44-5.04Q327.44-6.08 327.24-6.50Q327.04-6.92 326.40-7.06Q325.76-7.20 324.16-7.20L324.16-7.20Q323.92-7.20 323.92-7.52L323.92-7.52Q323.92-7.64 323.98-7.74Q324.04-7.84 324.12-7.84L324.12-7.84Q326.20-7.68 328.32-7.68L328.32-7.68Q329.28-7.68 331.52-7.76L331.52-7.76Q331.60-7.76 331.66-7.66Q331.72-7.56 331.72-7.48L331.72-7.48Q331.72-7.20 331.52-7.20L331.52-7.20Q330.80-7.24 330.50-7.08Q330.20-6.92 330.12-6.42Q330.04-5.92 330.04-4.64L330.04-4.64Q330.04-2.84 330.12-2.12Q330.20-1.40 330.20-1.12L330.20-1.12Q330.20-0.88 330.14-0.82Q330.08-0.76 329.76-0.64L329.76-0.64Q327.12 0.48 322.24 0.48L322.24 0.48Z M354.44-18.72Q354.52-18.72 354.52-18.48Q354.52-18.24 354.44-18.24L354.44-18.24Q352.92-18.24 352.24-17.28Q351.56-16.32 351.56-14.12L351.56-14.12L351.56 0.44Q351.56 0.52 351.36 0.56Q351.16 0.60 351.08 0.52L351.08 0.52L337.60-15.44L337.28-15.80L337.28-4.60Q337.28-2.40 337.92-1.44Q338.56-0.48 340.08-0.48L340.08-0.48Q340.20-0.48 340.20-0.24Q340.20 0 340.08 0L340.08 0Q339.20 0 338.72-0.04L338.72-0.04L336.92-0.08L335.16-0.04Q334.64 0 333.68 0L333.68 0Q333.56 0 333.56-0.24Q333.56-0.48 333.68-0.48L333.68-0.48Q335.20-0.48 335.86-1.44Q336.52-2.40 336.52-4.60L336.52-4.60L336.52-16.64Q335.68-17.48 334.98-17.86Q334.28-18.24 333.56-18.24L333.56-18.24Q333.48-18.24 333.48-18.48Q333.48-18.72 333.56-18.72L333.56-18.72L335.80-18.68Q336.20-18.68 336.72-18.70Q337.24-18.72 338.44-18.72L338.44-18.72Q338.76-18.72 338.94-18.54Q339.12-18.36 339.48-17.84L339.48-17.84Q339.84-17.28 340.36-16.64L340.36-16.64L350.76-4.20L350.76-14.12Q350.76-16.36 350.12-17.30Q349.48-18.24 347.96-18.24L347.96-18.24Q347.88-18.24 347.88-18.48Q347.88-18.72 347.96-18.72L347.96-18.72L349.36-18.68Q350.48-18.60 351.12-18.60L351.12-18.60Q351.80-18.60 352.92-18.68L352.92-18.68L354.44-18.72Z"/></g>
</svg>
</g><g opacity="1" transform="rotate(0 254 547.4674)">
<svg width="23.476" height="1.5651" x="254" y="547.4674" version="1.1" preserveAspectRatio="none" viewBox="0 0 23.476 1.5651">
  <defs><rect x="0" y="0" width="23.476" height="1.5651" rx="0%" ry="0%" id="id-c8709a5f-5ae2-4aeb-812a-1788e57457cbfxEKKCpm1678745410005"></rect></defs><use class="textc8709a5f-5ae2-4aeb-812a-1788e57457cb shapeStroke-strc8709a5f-5ae2-4aeb-812a-1788e57457cb" style="stroke-width:0;" xlink:href="#id-c8709a5f-5ae2-4aeb-812a-1788e57457cbfxEKKCpm1678745410005"></use>
</svg>
</g></svg></svg>